<svg id="Слой_1" data-name="Слой 1" xmlns="http://www.w3.org/2000/svg" viewBox="0 0 390.87 512">
    <defs>
        <style>.cls-1{fill:#ad2a2f;}.cls-2{fill:#93242c;}.cls-3{fill:#2d2d2d;}.cls-4{fill:#949494;}</style>
    </defs>
    <title>coffee</title>
    <path class="cls-1" d="M441.35,108H71.52a3,3,0,0,1-3-3V60.75a3,3,0,0,1,3-3H441.35a3,3,0,0,1,3,3V105A3,3,0,0,1,441.35,108Z" transform="translate(-61 0)"/>
    <path class="cls-2" d="M441.35,108H406.13V57.75h35.22a3,3,0,0,1,3,3V105A3,3,0,0,1,441.35,108Z" transform="translate(-61 0)"/>
    <path class="cls-1" d="M411.67,7.51H101.2L88.94,57.75h335Z" transform="translate(-61 0)"/>
    <path class="cls-2" d="M423.93,57.75H374.68V7.51h37Z" transform="translate(-61 0)"/>
    <path class="cls-3" d="M425.26,108l-11.15,96.28-22,190.24-9.8,84.67c-1.66,14.4-14.56,25.31-29.91,25.31H160.49c-15.35,0-28.25-10.91-29.91-25.31l-9.81-84.67-22-190.24L87.61,108Z" transform="translate(-61 0)"/>
    <path d="M425.26,108l-11.15,96.28-22,190.24-9.8,84.67c-1.66,14.4-14.56,25.31-29.91,25.31H316.92c15.35,0,28.25-10.91,29.91-25.31l9.81-84.67,22-190.24L389.81,108Z" transform="translate(-61 0)"/>
    <path class="cls-3" d="M414.11,204.27l-22,190.24H120.77l-22-190.24Z" transform="translate(-61 0)"/>
    <path d="M414.11,204.27l-22,190.24H356.64l22-190.24Z" transform="translate(-61 0)"/>
    <path class="cls-4" d="M441.35,50.24H429.83L419,5.73A7.52,7.52,0,0,0,411.67,0H101.2a7.51,7.51,0,0,0-7.3,5.73L83,50.24H71.52A10.53,10.53,0,0,0,61,60.75V105A10.52,10.52,0,0,0,71.52,115.5h9.39l32.4,279.88L123.12,480c2.1,18.22,18.17,32,37.37,32H352.38c19.18,0,35.24-13.71,37.36-31.9l3.09-23.84a7.51,7.51,0,0,0-14.9-1.92l-3.09,23.88s0,.07,0,.1C373.6,489,364,497,352.38,497H160.49c-11.57,0-21.22-8-22.45-18.66L129.21,402H383.66l-2.16,18.7a7.51,7.51,0,0,0,14.92,1.73l3.14-27.16s0,0,0,0v-.06L432,115.5h9.4A10.52,10.52,0,0,0,451.87,105V60.75A10.53,10.53,0,0,0,441.35,50.24ZM107.09,15H405.77l8.6,35.22H98.5ZM407.42,196.76H189.67a7.52,7.52,0,0,0,0,15H402.81L385.29,387H127.47L107.18,211.79h49.11a7.52,7.52,0,0,0,0-15H105.45L96,115.5H416.83Zm29.42-96.28H76V65.26H436.85v35.22Z" transform="translate(-61 0)"/>
</svg>