<?xml version="1.0"?>
<svg xmlns="http://www.w3.org/2000/svg" id="Layer_3" enable-background="new 0 0 64 64" height="512px" viewBox="0 0 64 64" width="512px"><g><g><path d="m57 35h-2v-1c0-.552-.447-1-1-1h-1.71c.463-1.958.71-3.969.71-6 0-14.336-11.663-26-26-26s-26 11.664-26 26 11.663 26 26 26c2.031 0 4.042-.247 6-.71v.71c0 1.538.586 2.937 1.54 4h-4.54c-.404 0-.77.244-.924.617-.155.374-.069.804.217 1.09l1.95 1.95c1.511 1.511 3.52 2.343 5.656 2.343h14.201c2.137 0 4.146-.832 5.656-2.343l1.95-1.95c.286-.286.372-.716.217-1.09-.153-.373-.519-.617-.923-.617h-4.54c.519-.578.926-1.254 1.19-2h2.35c3.309 0 6-2.691 6-6v-8c0-3.309-2.691-6-6-6zm-2 6h1c.552 0 1 .449 1 1v6c0 .551-.448 1-1 1h-1zm-2-4h-18v-2h18zm-27 6v3.949c-4.759-.237-9.077-2.137-12.395-5.14l3.102-3.102-1.414-1.414-3.102 3.102c-3.004-3.318-4.903-7.636-5.14-12.395h3.949v-2h-3.949c.237-4.759 2.137-9.077 5.14-12.395l3.102 3.102 1.414-1.414-3.102-3.102c3.318-3.004 7.636-4.903 12.395-5.14v3.949h2v-3.949c4.759.237 9.077 2.137 12.395 5.14l-3.102 3.102 1.414 1.414 3.102-3.102c3.004 3.318 4.903 7.635 5.14 12.395h-3.949v2h3.958c-.084 1.707-.382 3.381-.892 5h-12.066c-.553 0-1 .448-1 1v12.066c-1.62.509-3.294.808-5 .892v-3.958zm1 8c-13.233 0-24-10.767-24-24s10.767-24 24-24 24 10.767 24 24c0 2.036-.268 4.048-.771 6h-2.073c.551-1.944.844-3.954.844-6 0-12.131-9.869-22-22-22s-22 9.869-22 22 9.869 22 22 22c2.045 0 4.055-.293 6-.844v2.073c-1.952.502-3.964.771-6 .771zm28.343 8.243c-1.133 1.133-2.64 1.757-4.242 1.757h-14.202c-1.603 0-3.109-.624-4.242-1.757l-.242-.243h23.17zm-16.343-2.243c-2.206 0-4-1.794-4-4v-14h18v14c0 2.206-1.794 4-4 4zm22-8c0 2.206-1.794 4-4 4h-2v-2h1c1.654 0 3-1.346 3-3v-6c0-1.654-1.346-3-3-3h-1v-2h2c2.206 0 4 1.794 4 4z" data-original="#000000" class="active-path" data-old_color="#000000" fill="#949494"/><path d="m44 42c-2.757 0-5 2.691-5 6s2.243 6 5 6 5-2.691 5-6-2.243-6-5-6zm-3 6c0-1.736.839-3.202 2-3.754v7.509c-1.161-.553-2-2.019-2-3.755zm4 3.754v-7.509c1.161.552 2 2.018 2 3.754s-.839 3.203-2 3.755z" data-original="#000000" class="active-path" data-old_color="#000000" fill="#949494"/><path d="m31 27c0-1.858-1.279-3.411-3-3.858v-10.142h-2v10.142c-1.721.447-3 2-3 3.858 0 .74.215 1.424.567 2.019l-6.274 6.274 1.414 1.414 6.274-6.274c.595.352 1.279.567 2.019.567 2.206 0 4-1.794 4-4zm-4 2c-1.103 0-2-.897-2-2s.897-2 2-2 2 .897 2 2-.897 2-2 2z" data-original="#000000" class="active-path" data-old_color="#000000" fill="#949494"/></g></g> </svg>
